<?xml version="1.0" encoding="UTF-8" standalone="no"?>
<svg
   xmlns:dc="http://purl.org/dc/elements/1.1/"
   xmlns:cc="http://creativecommons.org/ns#"
   xmlns:rdf="http://www.w3.org/1999/02/22-rdf-syntax-ns#"
   xmlns:svg="http://www.w3.org/2000/svg"
   xmlns="http://www.w3.org/2000/svg"
   xmlns:sodipodi="http://sodipodi.sourceforge.net/DTD/sodipodi-0.dtd"
   xmlns:inkscape="http://www.inkscape.org/namespaces/inkscape"
   width="210mm"
   height="297mm"
   viewBox="0 0 210 297"
   version="1.1"
   id="svg8"
   inkscape:version="1.0.2-2 (e86c870879, 2021-01-15)"
   sodipodi:docname="drawing_logo.svg">
  <defs
     id="defs2">
    <rect
       x="21.916101"
       y="106.106"
       width="170.25069"
       height="68.955538"
       id="rect69" />
    <rect
       x="130.02381"
       y="120.95238"
       width="84.666667"
       height="43.845238"
       id="rect32" />
    <rect
       x="66.52381"
       y="121.70833"
       width="180.67262"
       height="111.88095"
       id="rect26" />
    <rect
       x="49.136719"
       y="108.1012"
       width="34.017671"
       height="69.547613"
       id="rect16" />
  </defs>
  <sodipodi:namedview
     id="base"
     pagecolor="#ffffff"
     bordercolor="#666666"
     borderopacity="1.0"
     inkscape:pageopacity="0.0"
     inkscape:pageshadow="2"
     inkscape:zoom="0.98994949"
     inkscape:cx="477.89817"
     inkscape:cy="555.01737"
     inkscape:document-units="mm"
     inkscape:current-layer="layer1"
     inkscape:document-rotation="0"
     showgrid="false"
     inkscape:snap-text-baseline="true"
     inkscape:window-width="1920"
     inkscape:window-height="1001"
     inkscape:window-x="2391"
     inkscape:window-y="-9"
     inkscape:window-maximized="1" />
  <metadata
     id="metadata5">
    <rdf:RDF>
      <cc:Work
         rdf:about="">
        <dc:format>image/svg+xml</dc:format>
        <dc:type
           rdf:resource="http://purl.org/dc/dcmitype/StillImage" />
        <dc:title></dc:title>
      </cc:Work>
    </rdf:RDF>
  </metadata>
  <g
     inkscape:label="Layer 1"
     inkscape:groupmode="layer"
     id="layer1">
    <text
       xml:space="preserve"
       style="font-style:normal;font-weight:normal;font-size:10.5833px;line-height:0;font-family:sans-serif;white-space:pre;inline-size:98.8591;fill:#000000;fill-opacity:1;stroke:none;stroke-width:0.264583"
       x="49.136906"
       y="108.1012"
       id="text12" />
    <text
       xml:space="preserve"
       id="text14"
       style="fill:black;fill-opacity:1;line-height:1.25;stroke:none;font-family:sans-serif;font-style:normal;font-weight:normal;font-size:10.58333333px;white-space:pre;shape-inside:url(#rect16);" />
    <g
       aria-label="BOOLFLIX"
       transform="matrix(0.74878652,0,0,2.0025934,-25.196964,-28.610553)"
       id="text22"
       style="font-style:normal;font-variant:normal;font-weight:normal;font-stretch:normal;font-size:39.0255px;line-height:1.25;font-family:Verdana;-inkscape-font-specification:Verdana;fill:#d40000;fill-opacity:1;stroke:none;stroke-width:0.406515">
      <path
         d="m 118.52149,87.454652 q 0,2.05464 -0.83709,3.671717 -0.81804,1.617075 -2.26391,2.682449 -1.67415,1.25561 -3.69073,1.788292 -1.99756,0.532689 -5.07952,0.532689 H 94.28432 V 67.80241 h 10.99614 q 3.42442,0 5.00343,0.228299 1.59806,0.228292 3.15807,1.008295 1.61706,0.818052 2.39707,2.206831 0.79903,1.369761 0.79903,3.139036 0,2.054636 -1.0844,3.633662 -1.08439,1.560004 -3.06292,2.435132 v 0.152191 q 2.77756,0.551709 4.39464,2.282937 1.63611,1.731221 1.63611,4.565859 z m -9.36003,-11.642953 q 0,-0.703902 -0.36146,-1.407807 -0.34244,-0.703903 -1.23659,-1.046343 -0.79903,-0.304396 -1.99757,-0.323416 -1.17953,-0.03811 -3.32931,-0.03811 h -0.68488 v 5.992697 h 1.14146 q 1.73125,0 2.94883,-0.05709 1.21756,-0.05709 1.92147,-0.38049 0.98927,-0.437561 1.29366,-1.12244 0.30439,-0.703907 0.30439,-1.617077 z m 1.78829,11.528809 q 0,-1.350734 -0.53269,-2.073666 -0.51365,-0.741951 -1.76926,-1.103414 -0.85609,-0.247319 -2.35903,-0.266341 -1.50296,-0.01906 -3.13907,-0.01906 h -1.59805 v 7.058065 h 0.53269 q 3.08198,0 4.4137,-0.01905 1.33171,-0.01905 2.45415,-0.494638 1.14145,-0.475606 1.55999,-1.255611 0.43757,-0.799026 0.43757,-1.826342 z"
         style="font-style:normal;font-variant:normal;font-weight:bold;font-stretch:normal;font-size:39.0255px;font-family:Verdana;-inkscape-font-specification:'Verdana Bold';fill:#d40000;stroke-width:0.405853"
         id="path50" />
      <path
         d="m 143.23864,81.956779 q 0,5.403812 -3.09657,8.591459 -3.09658,3.172458 -8.56118,3.172458 -5.44929,0 -8.54586,-3.172458 -3.09656,-3.187647 -3.09656,-8.591459 0,-5.449351 3.09656,-8.60664 3.09657,-3.172458 8.54586,-3.172458 5.43419,0 8.54595,3.172458 3.1118,3.157289 3.1118,8.60664 z m -7.72626,5.722578 q 0.85006,-1.032189 1.25988,-2.42868 0.40983,-1.411672 0.40983,-3.309079 0,-2.034017 -0.47055,-3.460874 -0.47056,-1.426844 -1.22953,-2.30724 -0.77415,-0.910755 -1.79115,-1.320596 -1.00182,-0.409841 -2.09466,-0.409841 -1.10816,0 -2.09478,0.394663 -0.97149,0.394659 -1.79123,1.305412 -0.75891,0.850041 -1.24464,2.352789 -0.47055,1.487566 -0.47055,3.460868 0,2.018841 0.45532,3.445688 0.4706,1.411671 1.22957,2.307247 0.75897,0.895577 1.77598,1.320595 1.01701,0.425021 2.14033,0.425021 1.1232,0 2.14022,-0.425021 1.01702,-0.440197 1.77596,-1.350952 z"
         style="font-style:normal;font-variant:normal;font-weight:bold;font-stretch:normal;font-size:39.0255px;font-family:Verdana;-inkscape-font-specification:'Verdana Bold';fill:#d40000;stroke-width:0.323825"
         id="path52" />
      <path
         d="m 163.89355,81.620537 q 0,4.45968 -2.55551,7.090388 -2.55564,2.618185 -7.06541,2.618185 -4.49724,0 -7.05287,-2.618185 -2.55551,-2.630708 -2.55551,-7.090388 0,-4.497266 2.55551,-7.102923 2.55563,-2.618185 7.05287,-2.618185 4.48473,0 7.05284,2.618185 2.56808,2.605657 2.56808,7.102923 z m -6.37637,4.722744 q 0.70153,-0.851848 1.03975,-2.004351 0.33823,-1.165027 0.33823,-2.730928 0,-1.678638 -0.3883,-2.85619 -0.38838,-1.177564 -1.01471,-1.904139 -0.6389,-0.751631 -1.47824,-1.089868 -0.82681,-0.338231 -1.72874,-0.338231 -0.91447,0 -1.72879,0.325704 -0.80169,0.325713 -1.47816,1.077339 -0.62634,0.701527 -1.02728,1.941718 -0.3883,1.227662 -0.3883,2.856202 0,1.66611 0.37581,2.843667 0.38832,1.165032 1.0147,1.904135 0.62633,0.739105 1.46566,1.089867 0.83939,0.350759 1.76636,0.350759 0.92705,0 1.76636,-0.350759 0.83928,-0.36329 1.46565,-1.114925 z"
         style="font-style:normal;font-variant:normal;font-weight:bold;font-stretch:normal;font-size:39.0255px;font-family:Verdana;-inkscape-font-specification:'Verdana Bold';fill:#d40000;stroke-width:0.267242"
         id="path54" />
      <path
         d="M 178.28948,90.108326 H 165.96191 V 73.017275 h 4.40766 v 13.785329 h 7.91991 z"
         style="font-style:normal;font-variant:normal;font-weight:bold;font-stretch:normal;font-size:39.0255px;font-family:Verdana;-inkscape-font-specification:'Verdana Bold';fill:#d40000;stroke-width:0.24487"
         id="path56" />
      <path
         d="m 193.13728,76.227639 h -8.12418 v 3.285253 h 7.53109 v 3.415702 h -7.53109 v 7.543023 h -4.53065 V 72.811928 h 12.65483 z"
         style="font-style:normal;font-variant:normal;font-weight:bold;font-stretch:normal;font-size:39.0255px;font-family:Verdana;-inkscape-font-specification:'Verdana Bold';fill:#d40000;stroke-width:0.253011"
         id="path58" />
      <path
         d="M 211.13247,91.204813 H 197.06079 V 71.695772 h 5.03122 v 15.735635 h 9.04046 z"
         style="font-style:normal;font-variant:normal;font-weight:bold;font-stretch:normal;font-size:39.0255px;font-family:Verdana;-inkscape-font-specification:'Verdana Bold';fill:#d40000;stroke-width:0.27951"
         id="path60" />
      <path
         d="m 227.10254,92.534313 h -13.30115 v -4.026951 h 3.72187 V 73.848615 h -3.72187 v -4.026951 h 13.30115 v 4.026951 h -3.72186 v 14.658747 h 3.72186 z"
         style="font-style:normal;font-variant:normal;font-weight:bold;font-stretch:normal;font-size:39.0255px;font-family:Verdana;-inkscape-font-specification:'Verdana Bold';fill:#d40000;stroke-width:0.325409"
         id="path62" />
      <path
         d="m 257.90449,94.638373 h -7.98507 l -5.773,-8.812349 -5.88089,8.812349 h -7.62539 L 240.1359,81.150081 230.83798,67.85962 h 7.96704 l 5.57521,8.344753 5.73701,-8.344753 h 7.64335 l -9.35186,13.020695 z"
         style="font-style:normal;font-variant:normal;font-weight:bold;font-stretch:normal;font-size:39.0255px;font-family:Verdana;-inkscape-font-specification:'Verdana Bold';fill:#d40000;stroke-width:0.383668"
         id="path64" />
    </g>
    <text
       xml:space="preserve"
       id="text24"
       style="fill:black;fill-opacity:1;line-height:1.25;stroke:none;font-family:sans-serif;font-style:normal;font-weight:normal;font-size:10.58333333px;white-space:pre;shape-inside:url(#rect26);" />
    <text
       xml:space="preserve"
       id="text30"
       style="fill:black;fill-opacity:1;line-height:1.25;stroke:none;font-family:sans-serif;font-style:normal;font-weight:normal;font-size:10.58333333px;white-space:pre;shape-inside:url(#rect32);" />
    <text
       xml:space="preserve"
       id="text67"
       style="fill:black;fill-opacity:1;line-height:1.25;stroke:none;font-family:sans-serif;font-style:normal;font-weight:normal;font-size:10.58333333px;white-space:pre;shape-inside:url(#rect69);" />
  </g>
</svg>
